# xmcd
#
# Track frame offsets: 
#        150
#        19428
#        34826
#        53765
#        71049
#        86733
#        100676
#        121567
#        139852
#        160504
#
# Disc length: 2430 seconds
#
# Revision: 0
# Processed by: cddbd v1.5.2PL0 Copyright (c) Steve Scherf et al.
# Submitted via: ExactAudioCopyFreeDBPlugin 1.0
#
DISCID=7c097c0a
DTITLE=The Young Fables - Old Songs
DYEAR=2018
DGENRE=Country
TTITLE0=Keeping Me Alive
TTITLE1=Half As Good
TTITLE2=Holdin On
TTITLE3=Old Songs
TTITLE4=Until I Die
TTITLE5=Daddy's Girl
TTITLE6=Your Kind Of Company
TTITLE7=Sawmill Wages
TTITLE8=Hard To Be Happy
TTITLE9=They Don't Make Em Like You
EXTD=
EXTT0=
EXTT1=
EXTT2=
EXTT3=
EXTT4=
EXTT5=
EXTT6=
EXTT7=
EXTT8=
EXTT9=
PLAYORDER=
